<svg xmlns="http://www.w3.org/2000/svg" version="1.1" xmlns:xlink="http://www.w3.org/1999/xlink" xmlns:svgjs="http://svgjs.dev/svgjs" width="1000" height="229" viewBox="0 0 1000 229"><g transform="matrix(1,0,0,1,-0.6060491284952718,-0.1959603676652364)"><svg viewBox="0 0 396 91" data-background-color="#ffffff" preserveAspectRatio="xMidYMid meet" height="229" width="1000" xmlns="http://www.w3.org/2000/svg" xmlns:xlink="http://www.w3.org/1999/xlink"><g id="tight-bounds" transform="matrix(1,0,0,1,0.23999557324651732,0.0778707137883714)"><svg viewBox="0 0 395.52 90.84425478506431" height="90.84425478506431" width="395.52"><g><svg viewBox="0 0 395.52 90.84425478506431" height="90.84425478506431" width="395.52"><g><svg viewBox="0 0 395.52 90.84425478506431" height="90.84425478506431" width="395.52"><g id="textblocktransform"><svg viewBox="0 0 395.52 90.84425478506431" height="90.84425478506431" width="395.52" id="textblock"><g><svg viewBox="0 0 395.52 90.84425478506431" height="90.84425478506431" width="395.52"><g transform="matrix(1,0,0,1,0,0)"><svg width="395.52" viewBox="1.2000000476837158 -36 159.33999633789062 36.599998474121094" height="90.84425478506431" data-palette-color="#000000"><path d="M12.75 0L8.45 0 1.2-24.8 5.4-24.8 10.65-5.35 16.45-24.8 21.2-24.8 27.05-5.35 32.25-24.8 36.5-24.8 29.25 0 24.95 0 18.85-20.45 12.75 0ZM51.35 0.6L51.35 0.6Q47.8 0.6 45.05-1.03 42.3-2.65 40.72-5.55 39.15-8.45 39.15-12.4L39.15-12.4Q39.15-16.3 40.7-19.23 42.25-22.15 45.02-23.78 47.8-25.4 51.45-25.4L51.45-25.4Q55.05-25.4 57.67-23.78 60.3-22.15 61.7-19.5 63.1-16.85 63.1-13.8L63.1-13.8Q63.1-13.25 63.07-12.7 63.05-12.15 63.05-11.45L63.05-11.45 43.3-11.45Q43.45-8.6 44.62-6.73 45.8-4.85 47.57-3.9 49.35-2.95 51.35-2.95L51.35-2.95Q53.95-2.95 55.7-4.15 57.45-5.35 58.25-7.4L58.25-7.4 62.4-7.4Q61.4-3.95 58.57-1.68 55.75 0.6 51.35 0.6ZM51.35-21.85L51.35-21.85Q48.35-21.85 46.02-20.03 43.7-18.2 43.35-14.7L43.35-14.7 58.95-14.7Q58.8-18.05 56.65-19.95 54.5-21.85 51.35-21.85ZM81.9 0.6L81.9 0.6Q78.85 0.6 76.47-0.65 74.1-1.9 72.85-4.15L72.85-4.15 72.45 0 68.65 0 68.65-36 72.85-36 72.85-20.7Q74.05-22.5 76.27-23.95 78.5-25.4 81.95-25.4L81.95-25.4Q85.65-25.4 88.4-23.7 91.15-22 92.67-19.05 94.2-16.1 94.2-12.35L94.2-12.35Q94.2-8.6 92.67-5.68 91.15-2.75 88.37-1.07 85.6 0.6 81.9 0.6ZM81.45-3.05L81.45-3.05Q83.95-3.05 85.85-4.23 87.75-5.4 88.85-7.5 89.95-9.6 89.95-12.4L89.95-12.4Q89.95-15.2 88.85-17.3 87.75-19.4 85.85-20.58 83.95-21.75 81.45-21.75L81.45-21.75Q78.95-21.75 77.05-20.58 75.15-19.4 74.05-17.3 72.95-15.2 72.95-12.4L72.95-12.4Q72.95-9.6 74.05-7.5 75.15-5.4 77.05-4.23 78.95-3.05 81.45-3.05ZM111.44 0.6L111.44 0.6Q107.89 0.6 105.07-1.03 102.24-2.65 100.62-5.58 98.99-8.5 98.99-12.4L98.99-12.4Q98.99-16.3 100.62-19.23 102.24-22.15 105.07-23.78 107.89-25.4 111.44-25.4L111.44-25.4Q115.84-25.4 118.87-23.1 121.89-20.8 122.69-16.95L122.69-16.95 118.39-16.95Q117.89-19.25 115.94-20.53 113.99-21.8 111.39-21.8L111.39-21.8Q109.29-21.8 107.44-20.75 105.59-19.7 104.44-17.6 103.29-15.5 103.29-12.4L103.29-12.4Q103.29-9.3 104.44-7.2 105.59-5.1 107.44-4.03 109.29-2.95 111.39-2.95L111.39-2.95Q113.99-2.95 115.94-4.23 117.89-5.5 118.39-7.85L118.39-7.85 122.69-7.85Q121.94-4.1 118.89-1.75 115.84 0.6 111.44 0.6ZM132.74 0L128.54 0 128.54-36 132.74-36 132.74 0ZM143.84 0L139.64 0 139.64-36 143.84-36 143.84-14.35 153.99-24.8 159.14-24.8 148.14-13.6 160.54 0 155.19 0 143.84-12.85 143.84 0Z" opacity="1" transform="matrix(1,0,0,1,0,0)" fill="#000000" class="wordmark-text-0" data-fill-palette-color="primary" id="text-0"></path></svg></g></svg></g></svg></g></svg></g></svg></g><defs></defs></svg><rect width="395.52" height="90.84425478506431" fill="none" stroke="none" visibility="hidden"></rect></g></svg></g></svg>